<svg version="1.1" xmlns="http://www.w3.org/2000/svg" xmlns:xlink="http://www.w3.org/1999/xlink" width="500" height="500"><g data-paper-data="{&quot;description&quot;:&quot;Logo for LET ME SUB\n===================\n\nThis logo was generated by MarkMaker at http://emblemmatic.org/markmaker/ and may be composed of elements designed by others.\n\nThe font is Hind Guntur Medium designed by Indian Type Foundry and released under the OFL license via Google Fonts: https://www.google.com/fonts/specimen/Hind%20Guntur. The font includes this copyright statement: Copyright (c) 2015 Indian Type Foundry (info@indiantypefoundry.com)\n\nMarkMaker uses semantic data from the Princeton University WordNet database http://wordnet.princeton.edu and font descriptions from Google Fonts https://www.google.com/fonts.&quot;}" fill="#5ac9c9" fill-rule="nonzero" stroke="none" stroke-width="1" stroke-linecap="butt" stroke-linejoin="miter" stroke-miterlimit="10" stroke-dasharray="" stroke-dashoffset="0" font-family="none" font-weight="none" font-size="none" text-anchor="none" style="mix-blend-mode: normal"><g data-paper-data="{&quot;elementType&quot;:&quot;logo&quot;}"><g data-paper-data="{&quot;elementType&quot;:&quot;text&quot;}"><g data-paper-data="{&quot;baseline&quot;:67.9,&quot;elementType&quot;:&quot;row&quot;}"><g data-paper-data="{&quot;baselineProportion&quot;:1,&quot;fontSize&quot;:100,&quot;baseline&quot;:67.4,&quot;elementType&quot;:&quot;word&quot;}"><path d="M74.49264,271.64917h-24.49264v-43.55683h6.65631v37.67602h17.83633z" data-paper-data="{&quot;elementType&quot;:&quot;letter&quot;,&quot;baseline&quot;:67.4,&quot;baselineProportion&quot;:1,&quot;fontSize&quot;:100}"></path><path d="M114.81826,271.64917h-25.13889v-43.55683h24.81576v5.5577h-18.15945v13.44187h16.09147v5.5577h-16.09147v13.44187h18.48257z" data-paper-data="{&quot;elementType&quot;:&quot;letter&quot;,&quot;baseline&quot;:67.4,&quot;baselineProportion&quot;:1,&quot;fontSize&quot;:100}"></path><path d="M157.72885,233.65003h-11.43852v37.99914h-6.65631v-37.99914h-11.37389v-5.5577h29.46872z" data-paper-data="{&quot;elementType&quot;:&quot;letter&quot;,&quot;baseline&quot;:67.4,&quot;baselineProportion&quot;:1,&quot;fontSize&quot;:100}"></path></g><g data-paper-data="{&quot;baselineProportion&quot;:1,&quot;fontSize&quot;:100,&quot;baseline&quot;:67.4,&quot;elementType&quot;:&quot;word&quot;}"><path d="M203.0827,271.64917h-6.59169l3.36047,-43.55683h7.88417c6.16086,16.88851 10.18911,28.2624 12.08476,34.12167c2.24031,-6.63477 6.4409,-18.00866 12.60175,-34.12167h7.88417l4.00671,43.55683h-6.59169l-1.55099,-17.06084l-1.35711,-17.44858c-2.36956,6.63477 -6.50552,17.85787 -12.40788,33.6693h-5.23458l-5.88082,-16.22072l-5.88082,-17.19009c0,2.36956 -0.77549,13.78654 -2.32648,34.25092z" data-paper-data="{&quot;elementType&quot;:&quot;letter&quot;,&quot;baseline&quot;:67.4,&quot;baselineProportion&quot;:1,&quot;fontSize&quot;:100}"></path><path d="M286.96515,271.64917h-25.13889v-43.55683h24.81576v5.5577h-18.15945v13.44187h16.09147v5.5577h-16.09147v13.44187h18.48257z" data-paper-data="{&quot;elementType&quot;:&quot;letter&quot;,&quot;baseline&quot;:67.4,&quot;baselineProportion&quot;:1,&quot;fontSize&quot;:100}"></path></g><g data-paper-data="{&quot;baselineProportion&quot;:0.9869186046511627,&quot;fontSize&quot;:100,&quot;baseline&quot;:67.9,&quot;elementType&quot;:&quot;word&quot;}"><path d="M352.48181,259.88753c0,0 0,0.93705 0,2.81116c0,1.87411 -1.35711,3.90978 -4.07134,6.107c-2.71422,2.19723 -6.34396,3.29584 -10.88921,3.29584c-4.54525,0 -8.3904,-0.92628 -11.53545,-2.77885v-6.91481c3.40355,2.54189 7.34564,3.81284 11.82626,3.81284c2.36956,0 4.24367,-0.54931 5.62232,-1.64792c1.37865,-1.09861 2.06798,-2.61729 2.06798,-4.55602c0,-1.16324 -0.40929,-2.22954 -1.22786,-3.19891c-0.81858,-0.96937 -1.70178,-1.70178 -2.6496,-2.19723c-0.94782,-0.49545 -2.17569,-1.08784 -3.68359,-1.77717c-1.5079,-0.68933 -2.48804,-1.1417 -2.94041,-1.35711c-0.45237,-0.21541 -1.19555,-0.60316 -2.22954,-1.16324c-1.03399,-0.56008 -1.79871,-1.03399 -2.29417,-1.42174c-0.49545,-0.38775 -1.10939,-0.92628 -1.84179,-1.61561c-0.73241,-0.68933 -1.27095,-1.37865 -1.61561,-2.06798c-0.86166,-1.89565 -1.29249,-3.70513 -1.29249,-5.42845c0,-3.70513 1.34634,-6.63477 4.03902,-8.78892c2.69268,-2.15415 6.08546,-3.23122 10.17834,-3.23122c4.09288,0 7.51797,0.68933 10.27528,2.06798v6.59169c-2.88656,-1.80948 -6.16086,-2.71422 -9.82291,-2.71422c-2.36956,0 -4.2329,0.52777 -5.59001,1.5833c-1.35711,1.05553 -2.03567,2.44496 -2.03567,4.16827c0,1.72332 0.66779,3.10197 2.00336,4.13596c1.33557,1.03399 3.14505,2.04644 5.42845,3.03735c2.28339,0.99091 3.93132,1.7664 4.94377,2.32648c1.01245,0.56008 2.16492,1.35711 3.4574,2.3911c2.58498,1.93873 3.87746,4.7822 3.87746,8.53042z" data-paper-data="{&quot;elementType&quot;:&quot;letter&quot;,&quot;baseline&quot;:67.9,&quot;baselineProportion&quot;:0.9897959183673469,&quot;fontSize&quot;:100}"></path><path d="M401.85483,254.97608c0,5.64386 -1.46482,9.93061 -4.39446,12.86025c-2.92964,2.92964 -6.95789,4.39446 -12.08476,4.39446c-5.12687,0 -9.15512,-1.43251 -12.08476,-4.29752c-2.92964,-2.86501 -4.39446,-7.01175 -4.39446,-12.44019v-27.40074h6.65631v27.33611c0,3.70513 0.89397,6.40858 2.68191,8.11036c1.78794,1.70178 4.14673,2.55266 7.07637,2.55266c6.59169,0 9.88753,-3.66205 9.88753,-10.98615v-27.01299h6.65631z" data-paper-data="{&quot;elementType&quot;:&quot;letter&quot;,&quot;baseline&quot;:67.4,&quot;baselineProportion&quot;:0.986822840409956,&quot;fontSize&quot;:100}"></path><path d="M436.55813,271.64917h-16.73772v-43.55683h14.28199c4.56679,0 8.16421,1.0663 10.79227,3.19891c2.62806,2.1326 3.94209,4.94377 3.94209,8.43348c0,2.41264 -0.67856,4.52371 -2.03567,6.33319c-1.35711,1.80948 -3.0912,2.97272 -5.20226,3.48972c2.36956,0.43083 4.36215,1.52944 5.97776,3.29584c1.61561,1.7664 2.42341,4.25444 2.42341,7.46412c0,3.20968 -1.17401,5.90236 -3.52203,8.07805c-2.34802,2.17569 -5.65463,3.26353 -9.91984,3.26353zM434.3609,252.3911h-7.88417v13.76499h8.53042c5.47153,0 8.2073,-2.26185 8.2073,-6.78556c0,-2.19723 -0.74318,-3.90978 -2.22954,-5.13764c-1.48636,-1.22786 -3.69436,-1.84179 -6.624,-1.84179M433.58541,233.58541h-7.10868v13.37725h6.01007c3.23122,0 5.63309,-0.65701 7.20562,-1.97104c1.57253,-1.31403 2.35879,-2.96195 2.35879,-4.94377c0,-1.98181 -0.7001,-3.55434 -2.10029,-4.71758c-1.40019,-1.16324 -3.52203,-1.74486 -6.3655,-1.74486" data-paper-data="{&quot;elementType&quot;:&quot;letter&quot;,&quot;baseline&quot;:67.4,&quot;baselineProportion&quot;:1,&quot;fontSize&quot;:100}"></path></g></g></g></g></g></svg>